<?xml version="1.0" standalone="no"?><!DOCTYPE svg PUBLIC "-//W3C//DTD SVG 1.1//EN" "http://www.w3.org/Graphics/SVG/1.1/DTD/svg11.dtd"><svg t="1541038249444" class="icon" style="" viewBox="0 0 1024 1024" version="1.1" xmlns="http://www.w3.org/2000/svg" p-id="2140" xmlns:xlink="http://www.w3.org/1999/xlink" width="200" height="200"><defs><style type="text/css"></style></defs><path d="M512.042899 57.198715c49.448289 0 93.834492 16.702025 124.979193 47.045944 34.576623 33.675744 52.908812 83.781818 52.908812 144.898645 0 43.056333-9.823879 89.115598-28.384863 133.187208-17.37411 41.254573-42.255551 79.735009-70.068426 108.362967l-9.180394 9.452087-4.118307 12.512219c-15.243458 46.330959-14.68577 86.169865 1.673062 118.41564A99.926156 99.926156 0 0 0 635.935316 680.922106c70.311521 23.279877 137.806005 55.153861 185.166541 87.485435 51.950733 35.463203 70.383019 64.906242 70.383019 79.363217v32.260076c0 4.575897 0 14.113783-16.373132 26.883396-11.525541 8.994498-34.648122 22.150202-79.363217 33.704343-67.20849 17.37411-162.172657 26.182712-282.390058 26.182712-120.431895 0-215.92515-8.822902-283.662728-26.211312-45.287083-11.611339-68.752856-24.824242-80.464293-33.861639C132.586622 893.944421 132.586622 884.549532 132.586622 880.030834v-32.260076c0-6.978243 5.104985-17.431308 13.999386-28.685155 12.126128-15.343555 31.359196-32.388773 55.64005-49.305293 45.987767-32.031281 111.651892-64.605949 180.175953-89.372993H382.645105c21.120626-7.736126 49.047898-27.769976 64.076861-60.759335 10.138472-22.236001 18.26069-59.157771-0.614886-108.677559l-4.289904-11.12515-8.336712-8.579807c-27.870074-28.456361-52.823014-66.922497-70.268622-108.305768-18.589582-44.186008-28.456361-90.445469-28.456361-133.759195 0-61.188326 18.203491-111.323 52.622818-144.970144C418.365703 73.88644 462.637509 57.198715 512.042899 57.198715m0-57.198715c-126.409161 0-234.514733 85.669376-234.514733 249.143304 0 106.718503 49.519788 215.167267 115.055216 282.089764 25.539226 67.008295-20.133948 91.875436-29.700433 95.378858C230.582321 674.458651 75.387907 761.672392 75.387907 847.770758v32.260076c0 117.257366 227.364893 143.969166 437.899064 143.969166 210.777266 0 435.325122-26.668901 435.325122-143.969166v-32.260076c0-88.658009-155.980897-175.213965-294.773579-221.158832-6.334758-2.059154-46.345259-20.091049-21.34942-96.079542 65.149337-67.079793 114.597626-175.099567 114.597626-281.38908C747.08672 85.669376 638.366262 0 512.042899 0z" fill="" p-id="2141"></path></svg>